<?xml version="1.0" encoding="UTF-8" standalone="no"?>
<svg width="345px" height="254px" viewBox="0 0 345 254" version="1.1" xmlns="http://www.w3.org/2000/svg" xmlns:xlink="http://www.w3.org/1999/xlink">
    <!-- Generator: Sketch 39.1 (31720) - http://www.bohemiancoding.com/sketch -->
    <title>Artboard 5 Copy</title>
    <desc>Created with Sketch.</desc>
    <defs></defs>
    <g id="Page-1" stroke="none" stroke-width="1" fill="none" fill-rule="evenodd">
        <g id="Artboard-5-Copy">
            <ellipse id="Oval-4" fill="#D8D8D8" cx="49.8923098" cy="198.225791" rx="17.8923098" ry="5.22579057"></ellipse>
            <rect id="Rectangle-2" fill="#474747" x="43.5" y="78.5" width="10.8631881" height="13.0644764" rx="4"></rect>
            <rect id="Rectangle" fill="#474747" x="45" y="93" width="7.66813277" height="100.596468"></rect>
            <ellipse id="Oval-4" fill="#474747" cx="49.8923098" cy="198.225791" rx="17.8923098" ry="5.22579057"></ellipse>
            <path d="M60.2733865,97.8628884 C62.1904197,100.475784 67.9415193,103.088679 67.9415193,103.088679 C67.9415193,103.088679 72.4145967,104.395127 76.2486631,103.088679 C80.0827295,101.782231 83.9167959,93.2903217 83.9167959,93.2903217 C83.9167959,93.2903217 85.194818,92.6370979 85.8338291,93.2903217 C86.4728401,93.9435455 86.4728401,95.9032168 85.8338291,97.8628884 C85.470958,98.9757145 84.4038225,100.776466 83.2777848,102.435455 C82.9025017,102.988359 82.0067336,104.198214 80.7217405,105.048351 C79.0726561,106.139366 76.9504375,106.844888 76.2486631,107.008022 C73.8182966,107.572983 68.5805303,107.008022 68.5805303,107.008022 C68.5805303,107.008022 64.1074529,106.354798 61.5514086,104.395127 C58.9953644,102.435455 57.0783312,99.8225599 57.0783312,99.8225599 C57.0783312,99.8225599 55.161298,97.8628885 56.4393201,96.5564408 C57.7173422,95.2499931 58.3563533,95.2499932 60.2733865,97.8628884 Z" id="Path-6" stroke="#B75151" opacity="0"></path>
            <path d="M60.2733865,97.8628884 C62.1904197,100.475784 67.9415193,103.088679 67.9415193,103.088679 C67.9415193,103.088679 72.4145967,104.395127 76.2486631,103.088679 C80.0827295,101.782231 83.9167959,93.2903217 83.9167959,93.2903217 C83.9167959,93.2903217 85.194818,92.6370979 85.8338291,93.2903217 C86.4728401,93.9435455 86.4728401,95.9032168 85.8338291,97.8628884 C85.470958,98.9757145 84.4038225,100.776466 83.2777848,102.435455 C82.9025017,102.988359 82.0067336,104.198214 80.7217405,105.048351 C79.0726561,106.139366 76.9504375,106.844888 76.2486631,107.008022 C73.8182966,107.572983 68.5805303,107.008022 68.5805303,107.008022 C68.5805303,107.008022 64.1074529,106.354798 61.5514086,104.395127 C58.9953644,102.435455 57.0783312,99.8225599 57.0783312,99.8225599 C57.0783312,99.8225599 55.161298,97.8628885 56.4393201,96.5564408 C57.7173422,95.2499931 58.3563533,95.2499932 60.2733865,97.8628884 Z" id="Path-6" stroke="#B75151" opacity="0"></path>
            <path d="M55.3951098,93.105378 C56.06222,91.7467546 66.3833369,103.974365 71.0721983,103.974365 C75.725663,103.974365 84.928133,94.8276013 84.928133,94.8276013 C85.9339285,93.8764436 86.7492869,94.2175383 86.7492869,95.6095308 L86.7492869,93.9977838 C86.7492869,95.3807892 85.9390457,97.2836074 84.934676,98.22416 C84.934676,98.22416 75.771592,107.370924 71.0721983,107.370924 C66.4292658,107.370924 57.3962397,98.2068355 56.6148697,97.6651086 C55.8334997,97.1233817 56.6148697,97.6651086 56.6148697,97.6651086 C55.9412149,97.0227064 55.157194,95.4075148 55.1322674,94.0303061 C55.1322674,94.0303061 54.7279996,94.4640014 55.3951098,93.105378 Z" id="Rectangle-5" fill="#474747"></path>
            <path d="M57.202461,55.4621698 C57.2492174,55.4485893 57.2955985,55.4340971 57.3415847,55.4187132 L63.0992019,61.7172563 L59.0777784,54.2829332 L67.3741227,56.1151626 L59.8689318,52.3204037 C59.8888361,52.1703101 59.9001711,52.0174339 59.9024166,51.8623068 L67.3653872,48.2952538 L59.3868489,49.8718666 C59.3818248,49.8631864 59.3767679,49.8545285 59.3716783,49.8458929 L63.6798843,42.7020792 L57.9448866,48.4556922 C57.7053745,48.3238231 57.450098,48.2180175 57.1826908,48.1419898 L56.196369,40 L55.2109196,48.1347886 C55.0910758,48.1679111 54.9736313,48.207004 54.8589104,48.2517359 L49.7715097,42.3624941 L53.2849328,49.4236009 C53.1746384,49.5637343 53.0738674,49.712032 52.9836245,49.867467 L45.0273508,48.2952538 L52.4653516,51.8503721 C52.4668542,51.9814819 52.4748495,52.1109959 52.4890241,52.2385938 L44.8698997,55.5657024 L53.2580138,54.1516304 C53.282893,54.1840006 53.3082751,54.2159478 53.3341482,54.2474596 L49.2935361,61.7172563 L55.0453828,55.4250258 C55.0569786,55.4288339 55.0685993,55.4325854 55.0802444,55.4362799 L55.7489128,64.065319 L57.202461,55.4621698 Z" id="Combined-Shape" fill="#7D7D7D"></path>
            <ellipse id="Oval" fill="#D8D8D8" cx="254.502199" cy="159.592731" rx="11.5021992" ry="3.59273102"></ellipse>
            <ellipse id="Oval" fill="#D8D8D8" cx="227.348627" cy="133.286283" rx="7.34862724" ry="2.28628337"></ellipse>
            <ellipse id="Oval" fill="#D8D8D8" cx="208.112089" cy="115.63306" rx="5.11208851" ry="1.63305955"></ellipse>
            <ellipse id="Oval" fill="#474747" cx="254.502199" cy="159.592731" rx="11.5021992" ry="3.59273102"></ellipse>
            <rect id="Rectangle-2" fill="#474747" x="251" y="82" width="7.66813277" height="9.79835731" rx="3"></rect>
            <rect id="Rectangle" fill="#474747" x="252" y="93" width="5.11208851" height="63.3627106"></rect>
            <ellipse id="Oval" fill="#474747" cx="227.348627" cy="133.286283" rx="7.34862724" ry="2.28628337"></ellipse>
            <rect id="Rectangle-2" fill="#474747" x="224.5" y="82.5" width="5.11208851" height="6.53223821" rx="2"></rect>
            <rect id="Rectangle" fill="#474747" x="225" y="90" width="3.83406639" height="41.8063245"></rect>
            <ellipse id="Oval" fill="#474747" cx="208.112089" cy="115.63306" rx="5.11208851" ry="1.63305955"></ellipse>
            <rect id="Rectangle-2" fill="#474747" x="206.5" y="83.5" width="3.19505532" height="4.57256675" rx="1"></rect>
            <rect id="Rectangle" fill="#474747" x="207" y="89" width="1.91703319" height="25.475729"></rect>
            <text id="474747" font-family="Helvetica" font-size="12" font-weight="normal" fill="#000000">
                <tspan x="149" y="173">474</tspan>
                <tspan x="149" y="187">747</tspan>
            </text>
            <polygon id="Path-5" stroke="#979797" points="147.24177 111 196.462217 111 296.770359 240.338317 45 240.338317"></polygon>
            <polygon id="Path-5" fill="#474747" points="147.24177 111 196.462217 111 296.770359 240.338317 45 240.338317"></polygon>
            <rect id="Rectangle-2" fill="#474747" x="290.5" y="78.5" width="10.8631881" height="13.0644764" rx="4"></rect>
            <rect id="Rectangle" fill="#474747" x="292" y="93" width="7.66813277" height="100.596468"></rect>
            <ellipse id="Oval-4" fill="#D8D8D8" cx="295.89231" cy="198.225791" rx="17.8923098" ry="5.22579057"></ellipse>
            <ellipse id="Oval-4" fill="#474747" cx="295.89231" cy="198.225791" rx="17.8923098" ry="5.22579057"></ellipse>
            <path d="M258.39511,95.105378 C259.06222,93.7467546 269.383337,105.974365 274.072198,105.974365 C278.725663,105.974365 287.928133,96.8276013 287.928133,96.8276013 C288.933929,95.8764436 289.749287,96.2175383 289.749287,97.6095308 L289.749287,95.9977838 C289.749287,97.3807892 288.939046,99.2836074 287.934676,100.22416 C287.934676,100.22416 278.771592,109.370924 274.072198,109.370924 C269.429266,109.370924 260.39624,100.206836 259.61487,99.6651086 C258.8335,99.1233817 259.61487,99.6651086 259.61487,99.6651086 C258.941215,99.0227064 258.157194,97.4075148 258.132267,96.0303061 C258.132267,96.0303061 257.728,96.4640014 258.39511,95.105378 Z" id="Rectangle-5" fill="#474747"></path>
            <path d="M231.295858,90.0493039 C231.808598,89.2910417 236.996673,97.5237279 239.812192,97.9282243 C242.606456,98.3296671 248.815995,93.68033 248.815995,93.68033 C249.537884,93.1688152 250.023442,93.4789553 249.900789,94.3710889 L250.064991,93.1767426 C249.942217,94.069753 249.260039,95.2156733 248.530719,95.7266676 C248.530719,95.7266676 242.353634,100.37316 239.531791,99.9677549 C236.743851,99.5672207 232.076328,93.2852069 231.651861,92.8925095 C231.227394,92.4998121 231.651861,92.8925095 231.651861,92.8925095 C231.300385,92.4486519 230.963251,91.3631289 231.092545,90.4774723 C231.092545,90.4774723 230.783118,90.8075661 231.295858,90.0493039" id="Rectangle-5" fill="#474747"></path>
            <path d="M210.157462,89.0433851 C210.511751,88.4323034 214.932952,94.4760035 217.118624,94.6322399 C219.287795,94.7872969 223.523715,91.1035599 223.523715,91.1035599 C224.21364,90.5427534 224.72322,90.8148935 224.66463,91.6714057 L224.772935,90.08813 C224.71312,90.962549 224.11496,92.1295552 223.419473,92.6871261 C223.419473,92.6871261 219.2009,96.3721032 217.010319,96.2155158 C214.846057,96.0608098 210.927603,91.4880637 210.580648,91.2095066 C210.233693,90.9309496 210.580648,91.2095066 210.580648,91.2095066 C210.287114,90.8876098 209.966024,89.9015253 210.157462,89.0433851 C210.157462,89.0433851 209.803173,89.6544668 210.157462,89.0433851" id="Rectangle-5" fill="#474747"></path>
            <path d="M193.919039,74.2401189 C193.995363,74.2179503 194.071075,74.1942936 194.146142,74.1691812 L203.544754,84.4507898 L196.980268,72.315158 L210.523044,75.3060506 L198.27173,69.1115663 C198.304221,68.8665568 198.322724,68.6170049 198.32639,68.3637787 L210.508785,62.5409968 L197.484788,65.1146262 C197.476587,65.1004569 197.468332,65.0863238 197.460024,65.0722272 L204.492648,53.4108169 L195.130959,62.8028931 C194.739985,62.5876327 194.323277,62.4149179 193.886767,62.290812 L192.276716,49 L190.668089,62.2790567 C190.472459,62.3331252 190.280745,62.3969397 190.093477,62.4699591 L181.788911,52.8564854 L187.524149,64.3828868 C187.344107,64.6116376 187.17961,64.8537155 187.0323,65.1074443 L174.044647,62.5409968 L186.186282,68.3442967 C186.188735,68.5583175 186.201786,68.7697335 186.224925,68.9780216 L173.787627,74.4091234 L187.480207,72.100822 C187.520819,72.1536625 187.562253,72.2058124 187.604487,72.2572516 L181.008678,84.4507898 L190.39787,74.1794858 C190.416799,74.185702 190.435768,74.1918259 190.454778,74.1978568 L191.546298,88.2837176 L193.919039,74.2401189 Z" id="Combined-Shape" fill="#7D7D7D"></path>
            <path d="M234.624193,63.3937493 C234.649575,63.386377 234.674753,63.3785098 234.699717,63.3701586 L237.825281,66.7893677 L235.642223,62.7535923 L240.145952,63.7482311 L236.071702,61.6882172 C236.082511,61.6067398 236.088664,61.5237498 236.089883,61.439538 L240.14121,59.5031378 L235.810004,60.3590133 C235.807276,60.3543012 235.804531,60.3496012 235.801768,60.3449133 L238.140509,56.466843 L235.027224,59.5902329 C234.897203,59.5186468 234.758625,59.4612095 234.613461,59.4199373 L234.078029,55 L233.543071,59.4160281 C233.478013,59.4340089 233.414257,59.4552308 233.35198,59.4795138 L230.590248,56.2824968 L232.497535,60.1156691 C232.437661,60.1917415 232.382957,60.2722459 232.333968,60.3566249 L228.014848,59.5031378 L232.052619,61.4330591 C232.053435,61.504233 232.057775,61.5745406 232.06547,61.6438081 L227.929374,63.4499528 L232.482922,62.6823136 C232.496428,62.699886 232.510206,62.7172288 232.524252,62.7343352 L230.330777,66.7893677 L233.453208,63.3735854 C233.459503,63.3756527 233.465811,63.3776892 233.472133,63.3796948 L233.835124,68.0640303 L234.624193,63.3937484 Z" id="Combined-Shape" fill="#D8D8D8"></path>
            <path d="M234.624193,63.3937493 C234.649575,63.386377 234.674753,63.3785098 234.699717,63.3701586 L237.825281,66.7893677 L235.642223,62.7535923 L240.145952,63.7482311 L236.071702,61.6882172 C236.082511,61.6067398 236.088664,61.5237498 236.089883,61.439538 L240.14121,59.5031378 L235.810004,60.3590133 C235.807276,60.3543012 235.804531,60.3496012 235.801768,60.3449133 L238.140509,56.466843 L235.027224,59.5902329 C234.897203,59.5186468 234.758625,59.4612095 234.613461,59.4199373 L234.078029,55 L233.543071,59.4160281 C233.478013,59.4340089 233.414257,59.4552308 233.35198,59.4795138 L230.590248,56.2824968 L232.497535,60.1156691 C232.437661,60.1917415 232.382957,60.2722459 232.333968,60.3566249 L228.014848,59.5031378 L232.052619,61.4330591 C232.053435,61.504233 232.057775,61.5745406 232.06547,61.6438081 L227.929374,63.4499528 L232.482922,62.6823136 C232.496428,62.699886 232.510206,62.7172288 232.524252,62.7343352 L230.330777,66.7893677 L233.453208,63.3735854 C233.459503,63.3756527 233.465811,63.3776892 233.472133,63.3796948 L233.835124,68.0640303 L234.624193,63.3937484 Z" id="Combined-Shape" fill="#7D7D7D"></path>
            <path d="M253.624193,25.3937493 C253.649575,25.386377 253.674753,25.3785098 253.699717,25.3701586 L256.825281,28.7893677 L254.642223,24.7535923 L259.145952,25.7482311 L255.071702,23.6882172 C255.082511,23.6067398 255.088664,23.5237498 255.089883,23.439538 L259.14121,21.5031378 L254.810004,22.3590133 C254.807276,22.3543012 254.804531,22.3496012 254.801768,22.3449133 L257.140509,18.466843 L254.027224,21.5902329 C253.897203,21.5186468 253.758625,21.4612095 253.613461,21.4199373 L253.078029,17 L252.543071,21.4160281 C252.478013,21.4340089 252.414257,21.4552308 252.35198,21.4795138 L249.590248,18.2824968 L251.497535,22.1156691 C251.437661,22.1917415 251.382957,22.2722459 251.333968,22.3566249 L247.014848,21.5031378 L251.052619,23.4330591 C251.053435,23.504233 251.057775,23.5745406 251.06547,23.6438081 L246.929374,25.4499528 L251.482922,24.6823136 C251.496428,24.699886 251.510206,24.7172288 251.524252,24.7343352 L249.330777,28.7893677 L252.453208,25.3735854 C252.459503,25.3756527 252.465811,25.3776892 252.472133,25.3796948 L252.835124,30.0640303 L253.624193,25.3937484 Z" id="Combined-Shape" fill="#7D7D7D"></path>
            <path d="M274.688878,54.8799326 C274.748994,54.862472 274.808627,54.8438391 274.867752,54.8240598 L282.270402,62.9221867 L277.100001,53.3637713 L287.766729,55.7194948 L278.117198,50.840519 C278.142789,50.6475416 278.157363,50.4509865 278.16025,50.2515373 L287.755498,45.6653263 L277.497377,47.6923999 C277.490918,47.6812397 277.484416,47.670108 277.477872,47.6590051 L283.016994,38.4741018 L275.643426,45.8716043 C275.335481,45.7020582 275.007269,45.5660225 274.66346,45.4682727 L273.395332,35 L272.128325,45.4590139 C271.97424,45.5016 271.82324,45.5518623 271.675742,45.6093747 L265.134798,38.0374925 L269.652056,47.1160584 C269.510249,47.2962298 269.380687,47.4868982 269.26466,47.6867432 L259.035165,45.6653263 L268.598309,50.2361927 C268.600241,50.4047624 268.610521,50.5712804 268.628745,50.7353349 L258.832728,55.013046 L269.617446,53.1949533 C269.649434,53.2365722 269.682068,53.2776471 269.715333,53.3181623 L264.520261,62.9221867 L271.915492,54.832176 C271.930401,54.8370721 271.945342,54.8418955 271.960314,54.8466456 L272.820031,65.9411245 L274.688878,54.8799326 Z" id="Combined-Shape" fill="#7D7D7D"></path>
            <path d="M211.202461,30.4621698 C211.249217,30.4485893 211.295599,30.4340971 211.341585,30.4187132 L217.099202,36.7172563 L213.077778,29.2829332 L221.374123,31.1151626 L213.868932,27.3204037 C213.888836,27.1703101 213.900171,27.0174339 213.902417,26.8623068 L221.365387,23.2952538 L213.386849,24.8718666 C213.381825,24.8631864 213.376768,24.8545285 213.371678,24.8458929 L217.679884,17.7020792 L211.944887,23.4556922 C211.705374,23.3238231 211.450098,23.2180175 211.182691,23.1419898 L210.196369,15 L209.21092,23.1347886 C209.091076,23.1679111 208.973631,23.207004 208.85891,23.2517359 L203.77151,17.3624941 L207.284933,24.4236009 C207.174638,24.5637343 207.073867,24.712032 206.983624,24.867467 L199.027351,23.2952538 L206.465352,26.8503721 C206.466854,26.9814819 206.474849,27.1109959 206.489024,27.2385938 L198.8699,30.5657024 L207.258014,29.1516304 C207.282893,29.1840006 207.308275,29.2159478 207.334148,29.2474596 L203.293536,36.7172563 L209.045383,30.4250258 C209.056979,30.4288339 209.068599,30.4325854 209.080244,30.4362799 L209.748913,39.065319 L211.202461,30.4621698 Z" id="Combined-Shape" fill="#7D7D7D"></path>
            <ellipse id="Oval" fill="#474747" cx="90.5021992" cy="159.592731" rx="11.5021992" ry="3.59273102"></ellipse>
            <ellipse id="Oval" fill="#474747" cx="117.348627" cy="133.286283" rx="7.34862724" ry="2.28628337"></ellipse>
            <ellipse id="Oval" fill="#474747" cx="136.112089" cy="115.63306" rx="5.11208851" ry="1.63305955"></ellipse>
            <rect id="Rectangle-2" fill="#474747" x="86.6999969" y="82" width="7.66813277" height="9.79835731" rx="3"></rect>
            <rect id="Rectangle-2" fill="#474747" x="115" y="82.5" width="5.11208851" height="6.53223821" rx="2"></rect>
            <rect id="Rectangle-2" fill="#474747" x="135" y="83.5" width="3.19505532" height="4.57256675" rx="1"></rect>
            <rect id="Rectangle" fill="#474747" x="88" y="93" width="5.11208851" height="63.3627106"></rect>
            <rect id="Rectangle" fill="#474747" x="115.5" y="90" width="3.83406639" height="41.8063245"></rect>
            <rect id="Rectangle" fill="#474747" x="135.5" y="89" width="1.91703319" height="25.475729"></rect>
            <ellipse id="Oval" fill="#474747" cx="136.112089" cy="115.63306" rx="5.11208851" ry="1.63305955"></ellipse>
            <rect id="Rectangle-2" fill="#474747" x="135" y="83.5" width="3.19505532" height="4.57256675" rx="1"></rect>
            <rect id="Rectangle" fill="#474747" x="135.5" y="89" width="1.91703319" height="25.475729"></rect>
            <path d="M95.1434807,92.6188323 C95.4169452,91.7404576 102.732959,98.0628309 105.541144,97.6081656 C108.328129,97.1569327 112.936582,90.8548761 112.936582,90.8548761 C113.480629,90.1499579 114.033674,90.3014255 114.171539,91.191235 L113.986972,90 C114.124973,90.890684 113.800347,92.1904188 113.249045,92.8970603 C113.249045,92.8970603 108.670814,99.1866965 105.856322,99.642383 C103.075645,100.092595 96.8153497,95.4800789 96.2971144,95.231403 C95.778879,94.982727 96.2971144,95.231403 96.2971144,95.231403 C95.8340482,94.9119872 95.2011746,93.9746571 95.0715121,93.0890568 C95.0715121,93.0890568 94.8700161,93.4972069 95.1434807,92.6188323" id="Rectangle-5" fill="#474747"></path>
            <path d="M120.093661,90.3429237 C120.304397,89.6660336 125.942239,94.5381595 128.106273,94.1877869 C130.25397,93.8400593 133.570692,89.2766681 133.570692,89.2766681 C134.119525,88.5715838 134.675931,88.7195688 134.807324,89.5676016 L134.564443,88 C134.698582,88.8657625 134.372561,90.1404077 133.817596,90.8436184 C133.817596,90.8436184 130.518049,95.4042291 128.349154,95.7553887 C126.206318,96.1023293 121.382031,92.547848 120.98267,92.3562141 C120.583309,92.1645803 120.98267,92.3562141 120.98267,92.3562141 C120.625823,92.110067 120.095968,91.2230918 120.093661,90.3429237 C120.093661,90.3429237 119.882924,91.0198138 120.093661,90.3429237" id="Rectangle-5" fill="#474747"></path>
            <path d="M89.6241931,22.3937493 C89.6495752,22.386377 89.6747535,22.3785098 89.6997174,22.3701586 L92.825281,25.7893677 L90.6422226,21.7535923 L95.1459523,22.7482311 L91.071702,20.6882172 C91.082511,20.6067398 91.0886643,20.5237498 91.0898833,20.439538 L95.1412102,18.5031378 L90.8100037,19.3590133 C90.8072763,19.3543012 90.8045311,19.3496012 90.8017682,19.3449133 L93.1405086,15.466843 L90.0272242,18.5902329 C89.8972033,18.5186468 89.7586246,18.4612095 89.6134607,18.4199373 L89.0780289,14 L88.5430706,18.4160281 C88.4780126,18.4340089 88.414257,18.4552308 88.3519799,18.4795138 L85.5902481,15.2824968 L87.497535,19.1156691 C87.4376608,19.1917415 87.3829566,19.2722459 87.3339676,19.3566249 L83.0148476,18.5031378 L87.0526194,20.4330591 C87.0534351,20.504233 87.0577754,20.5745406 87.0654702,20.6438081 L82.9293741,22.4499528 L87.4829218,21.6823136 C87.4964276,21.699886 87.5102065,21.7172288 87.5242519,21.7343352 L85.3307767,25.7893677 L88.4532078,22.3735854 C88.4595027,22.3756527 88.465811,22.3776892 88.4721327,22.3796948 L88.8351241,27.0640303 L89.6241933,22.3937484 Z" id="Combined-Shape" fill="#7D7D7D"></path>
            <path d="M153.273819,72.4840481 C153.305522,72.4748399 153.33697,72.4650135 153.368151,72.4545825 L157.272075,76.7252787 L154.545368,71.6844725 L160.170664,72.9268066 L155.081806,70.353789 C155.095302,70.2520188 155.102988,70.1483619 155.10451,70.0431787 L160.164741,67.624556 L154.754932,68.6935705 C154.751525,68.687685 154.748097,68.6818145 154.744646,68.6759592 L157.665804,63.8321315 L153.777217,67.7333405 C153.614817,67.6439272 153.441728,67.5721863 153.260413,67.5206361 L152.591643,62 L151.923464,67.5157533 C151.842204,67.5382119 151.762572,67.5647186 151.684786,67.5950489 L148.235299,63.6018775 L150.617558,68.3896262 C150.542773,68.4846429 150.474446,68.5851954 150.413257,68.6905874 L145.018545,67.624556 L150.061845,70.0350864 C150.062864,70.1239848 150.068285,70.2118011 150.077896,70.2983182 L144.911786,72.5542479 L150.599306,71.5954432 C150.616175,71.6173917 150.633385,71.6390534 150.650928,71.6604198 L147.911211,76.7252787 L151.811222,72.4588627 C151.819085,72.4614448 151.826964,72.4639885 151.83486,72.4664936 L152.288247,78.317371 L153.273819,72.4840469 Z" id="Combined-Shape" fill="#7D7D7D"></path>
            <path d="M108.688878,58.8799326 C108.748994,58.862472 108.808627,58.8438391 108.867752,58.8240598 L116.270402,66.9221867 L111.100001,57.3637713 L121.766729,59.7194948 L112.117198,54.840519 C112.142789,54.6475416 112.157363,54.4509865 112.16025,54.2515373 L121.755498,49.6653263 L111.497377,51.6923999 C111.490918,51.6812397 111.484416,51.670108 111.477872,51.6590051 L117.016994,42.4741018 L109.643426,49.8716043 C109.335481,49.7020582 109.007269,49.5660225 108.66346,49.4682727 L107.395332,39 L106.128325,49.4590139 C105.97424,49.5016 105.82324,49.5518623 105.675742,49.6093747 L99.1347982,42.0374925 L103.652056,51.1160584 C103.510249,51.2962298 103.380687,51.4868982 103.26466,51.6867432 L93.0351653,49.6653263 L102.598309,54.2361927 C102.600241,54.4047624 102.610521,54.5712804 102.628745,54.7353349 L92.8327282,59.013046 L103.617446,57.1949533 C103.649434,57.2365722 103.682068,57.2776471 103.715333,57.3181623 L98.5202607,66.9221867 L105.915492,58.832176 C105.930401,58.8370721 105.945342,58.8418955 105.960314,58.8466456 L106.820031,69.9411245 L108.688878,58.8799326 Z" id="Combined-Shape" fill="#7D7D7D"></path>
            <path d="M154.202461,32.4621698 C154.249217,32.4485893 154.295599,32.4340971 154.341585,32.4187132 L160.099202,38.7172563 L156.077778,31.2829332 L164.374123,33.1151626 L156.868932,29.3204037 C156.888836,29.1703101 156.900171,29.0174339 156.902417,28.8623068 L164.365387,25.2952538 L156.386849,26.8718666 C156.381825,26.8631864 156.376768,26.8545285 156.371678,26.8458929 L160.679884,19.7020792 L154.944887,25.4556922 C154.705374,25.3238231 154.450098,25.2180175 154.182691,25.1419898 L153.196369,17 L152.21092,25.1347886 C152.091076,25.1679111 151.973631,25.207004 151.85891,25.2517359 L146.77151,19.3624941 L150.284933,26.4236009 C150.174638,26.5637343 150.073867,26.712032 149.983624,26.867467 L142.027351,25.2952538 L149.465352,28.8503721 C149.466854,28.9814819 149.474849,29.1109959 149.489024,29.2385938 L141.8699,32.5657024 L150.258014,31.1516304 C150.282893,31.1840006 150.308275,31.2159478 150.334148,31.2474596 L146.293536,38.7172563 L152.045383,32.4250258 C152.056979,32.4288339 152.068599,32.4325854 152.080244,32.4362799 L152.748913,41.065319 L154.202461,32.4621698 Z" id="Combined-Shape" fill="#7D7D7D"></path>
        </g>
    </g>
</svg>