<?xml version="1.0" encoding="UTF-8" standalone="no"?>
<svg width="289px" height="254px" viewBox="0 0 289 254" version="1.1" xmlns="http://www.w3.org/2000/svg" xmlns:xlink="http://www.w3.org/1999/xlink">
    <!-- Generator: Sketch 39.1 (31720) - http://www.bohemiancoding.com/sketch -->
    <title>Artboard 4</title>
    <desc>Created with Sketch.</desc>
    <defs>
        <path d="M64.9997374,156.447833 C64.9997374,152.366633 66.9997475,146.427069 69.4708187,143.176272 L72.4997374,139.191602 L73.8214294,142.27286 C75.4288694,146.020281 76.8397512,152.354996 76.9729079,156.427527 L79.7587865,241.632239 C79.89186,245.702225 76.6893543,249.0016 72.6095971,249.0016 L72.3898776,249.0016 C68.3084158,249.0016 64.9997374,245.70477 64.9997374,241.611933 L64.9997374,156.447833 Z" id="path-1"></path>
        <mask id="mask-2" maskContentUnits="userSpaceOnUse" maskUnits="objectBoundingBox" x="-3" y="-3" width="20.7630506" height="115.809998">
            <rect x="61.9997374" y="136.191602" width="20.7630506" height="115.809998" fill="white"></rect>
            <use xlink:href="#path-1" fill="black"></use>
        </mask>
        <path d="M205.997749,125.315456 C205.997749,125.315456 215.626089,125.335188 218.997984,122.697556 C221.885327,120.43896 216.617872,107.794109 211.615843,108.919915 C209.866525,109.313633 211.127473,117.698381 208.862614,118.730469 C191.616249,126.58958 208.862614,96.7069456 208.862614,96.7069456 L211.182243,14.1918659 C211.421713,5.67329007 216.722863,3.41131027 218.997984,5.48002386 L218.997984,5.48002386 L218.997984,5.48002386 C223.205211,1.77286554 226.615843,5.68430156 226.615843,14.2033782 L226.615842,94.6747269 L231.527466,118.81959 C233.227011,127.174318 227.704691,133.947164 219.173408,133.947163 L218.145852,133.947163 C209.623349,133.947163 205.169246,127.4936 205.997749,125.315456 L205.997749,125.315456 Z" id="path-3"></path>
        <mask id="mask-4" maskContentUnits="userSpaceOnUse" maskUnits="objectBoundingBox" x="-3" y="-3" width="36.8692847" height="136">
            <rect x="198.197563" y="0.947163205" width="36.8692847" height="136" fill="white"></rect>
            <use xlink:href="#path-3" fill="black"></use>
        </mask>
    </defs>
    <g id="Page-1" stroke="none" stroke-width="1" fill="none" fill-rule="evenodd">
        <g id="Artboard-4">
            <g id="Group" transform="translate(15.000000, 37.000000)" stroke="#474747" stroke-width="10">
                <path d="M12.3018514,107.676985 C4.54807322,96.5751618 0,83.0687106 0,68.5 C0,30.6684946 30.6684946,0 68.5,0 C85.2512195,0 100.59807,6.01281822 112.5,15.9979029 C124.40193,6.01281822 139.74878,0 156.5,0 C194.331505,0 225,30.6684946 225,68.5 C225,83.8191701 219.9713,97.9638244 211.474582,109.373282 C210.899452,110.480004 207.109649,117.509154 198.773438,127.242187 C190.891346,136.445008 178.029431,148.489299 171.189453,155.03418 C169.507773,156.643307 167.638956,158.37066 165.631652,160.180879 C162.426211,163.621753 158.870757,166.73223 155.021983,169.455615 C154.17397,170.178991 153.318012,170.905781 152.456458,171.634277 C133.791118,187.416956 121,202 112.5,204 C104,206 57.2148438,160.478516 57.2148438,160.478516 C57.2148438,160.478516 34.7844914,139.201051 24.71875,127.242187 C20.5587133,122.299749 14.5419116,111.713363 12.3018514,107.676985 Z" id="Combined-Shape"></path>
            </g>
            <path d="M127.065745,208.856602 L120.322132,202.784625 C118.883388,201.489175 116.667367,201.602471 115.37394,203.038968 C114.083144,204.472541 114.198834,206.690612 115.638217,207.986639 L124.545499,216.006792 C125.740801,217.083046 127.472595,217.186954 128.766121,216.367571 C129.143203,216.224719 129.501912,216.013966 129.824018,215.733963 L138.869914,207.870486 C140.331047,206.600342 140.48866,204.387031 139.2205,202.92818 C137.954921,201.472298 135.739284,201.31681 134.277501,202.587519 L127.065745,208.856602 Z" id="Combined-Shape" fill="#7D7D7D"></path>
            <path d="M127.588438,79.4746585 L120.844824,73.4026816 C119.406081,72.107231 117.19006,72.2205276 115.896632,73.6570241 C114.605837,75.0905975 114.721526,77.3086684 116.16091,78.6046954 L125.068192,86.6248481 C126.263493,87.7011021 127.995288,87.8050099 129.288814,86.9856269 C129.665896,86.8427757 130.024605,86.6320219 130.346711,86.3520196 L139.392607,78.4885419 C140.85374,77.2183982 141.011353,75.0050875 139.743193,73.5462365 C138.477614,72.0903539 136.261977,71.934866 134.800194,73.2055749 L127.588438,79.4746585 Z" id="Combined-Shape" fill="#7D7D7D"></path>
            <path d="M59.7164386,147.656087 C59.7164386,145.718349 61.2861613,144.147503 63.2152893,144.147503 L63.2253551,144.147503 L64.2220721,144.147503 C66.1519574,144.147503 67.7164386,145.710786 67.7164386,147.639803 L67.7164386,147.937171 L67.7164386,167.690011 C67.7164386,169.627145 66.1549668,171.197502 64.2075221,171.197502 L63.2253551,171.197502 C61.287434,171.197502 59.7164386,169.62626 59.7164386,167.688918 L59.7164386,147.656087 Z" id="Rectangle" fill="#7D7D7D" transform="translate(63.716439, 157.672502) rotate(-45.000000) translate(-63.716439, -157.672502) "></path>
            <rect id="Rectangle" fill="#7D7D7D" transform="translate(96.869915, 186.450394) rotate(-47.000000) translate(-96.869915, -186.450394) " x="92.8699147" y="173.950394" width="8" height="25" rx="4"></rect>
            <rect id="Rectangle" fill="#7D7D7D" transform="translate(189.550142, 157.611406) rotate(-134.000000) translate(-189.550142, -157.611406) " x="185.550142" y="143.206406" width="8" height="28.8099995" rx="4"></rect>
            <rect id="Rectangle" fill="#2E2E2E" transform="translate(158.381523, 186.611406) rotate(-132.000000) translate(-158.381523, -186.611406) " x="154.381523" y="172.206406" width="8" height="28.8099995" rx="4"></rect>
            <rect id="Rectangle" fill="#7D7D7D" transform="translate(158.381523, 186.611406) rotate(-132.000000) translate(-158.381523, -186.611406) " x="154.381523" y="172.206406" width="8" height="28.8099995" rx="4"></rect>
            <g id="Rectangle" transform="translate(72.381263, 194.096601) rotate(-132.000000) translate(-72.381263, -194.096601) ">
                <use fill="#474747" fill-rule="evenodd" xlink:href="#path-1"></use>
                <use stroke="#FAFAFA" mask="url(#mask-2)" stroke-width="6" xlink:href="#path-1"></use>
            </g>
            <path d="M41.7009111,108.008652 C40.6291476,110.0085 41.1054869,119.007815 41.1054869,119.007815 C41.1054869,119.007815 43.0118884,132.006825 45.1554154,134.006672 C47.2989424,136.00652 51.9422066,133.997868 50.2750189,130.998097 C48.6078313,127.998326 46.9575634,119.506658 47,116 C47.0132995,114.901021 47.536068,110.0085 47.5360678,108.008652 C47.5360676,106.008805 44.5087387,105.964975 44.3207774,106.008805 C44.3207774,106.008805 42.7726745,106.008805 41.7009111,108.008652 Z" id="Path-2" fill="#7D7D7D"></path>
            <path d="M53.7050186,67.9489953 C52.6332551,69.9488432 53.1095944,78.9481579 53.1095944,78.9481579 C53.1095944,78.9481579 55.0159959,91.9471675 57.1595229,93.9470153 C59.3030499,95.9468631 63.9463141,93.9382107 62.2791265,90.93844 C60.6119388,87.9386693 58.9616709,79.4470006 59.0041075,75.9403428 C59.017407,74.8413643 59.5401756,69.948843 59.5401753,67.9489953 C59.5401751,65.9491476 56.5128463,65.9053175 56.3248849,65.9491474 C56.3248849,65.9491474 54.776782,65.9491474 53.7050186,67.9489953 Z" id="Path-2" fill="#7D7D7D" transform="translate(57.818681, 80.345343) rotate(44.000000) translate(-57.818681, -80.345343) "></path>
            <path d="M196.024219,68.0874778 C194.952455,70.0873257 195.428795,79.0866404 195.428795,79.0866404 C195.428795,79.0866404 197.335196,92.08565 199.478723,94.0854978 C201.62225,96.0853456 206.265514,94.0766932 204.598327,91.0769225 C202.931139,88.0771518 201.280871,79.5854831 201.323308,76.0788253 C201.336607,74.9798468 201.859376,70.0873255 201.859376,68.0874778 C201.859375,66.0876301 198.832047,66.0438 198.644085,66.0876299 C198.644085,66.0876299 197.095982,66.0876299 196.024219,68.0874778 Z" id="Path-2" fill="#7D7D7D" transform="translate(200.137882, 80.483825) rotate(155.000000) translate(-200.137882, -80.483825) "></path>
            <path d="M87.9085347,51.8464843 C86.8367712,53.8463322 87.3131105,62.8456469 87.3131105,62.8456469 C87.3131105,62.8456469 89.219512,75.8446565 91.363039,77.8445043 C93.5065659,79.8443521 98.1498302,77.8356997 96.4826425,74.835929 C94.8154549,71.8361582 93.165187,63.3444895 93.2076236,59.8378318 C93.2209231,58.7388533 93.7436916,53.846332 93.7436914,51.8464843 C93.7436912,49.8466366 90.7163623,49.8028065 90.5284009,49.8466364 C90.5284009,49.8466364 88.9802981,49.8466364 87.9085347,51.8464843 Z" id="Path-2" fill="#7D7D7D" transform="translate(92.022197, 64.242832) rotate(102.000000) translate(-92.022197, -64.242832) "></path>
            <path d="M103.354783,139.093515 C101.796526,142.461247 102.489084,157.616042 102.489084,157.616042 C102.489084,157.616042 105.260838,179.506301 108.377352,182.874033 C111.493866,186.241765 118.244796,182.859206 115.820841,177.807609 C113.396885,172.756012 110.997529,158.45609 111.059228,152.550899 C111.078565,150.700225 111.838628,142.461247 111.838628,139.093515 C111.838627,135.725782 107.437137,135.651973 107.163856,135.725782 C107.163856,135.725782 104.91304,135.725782 103.354783,139.093515 Z" id="Path-2" fill="#7D7D7D" transform="translate(109.335715, 159.968893) rotate(149.000000) translate(-109.335715, -159.968893) "></path>
            <path d="M157.908535,51.8464843 C156.836771,53.8463322 157.31311,62.8456469 157.31311,62.8456469 C157.31311,62.8456469 159.219512,75.8446565 161.363039,77.8445043 C163.506566,79.8443521 168.14983,77.8356997 166.482643,74.835929 C164.815455,71.8361582 163.165187,63.3444895 163.207624,59.8378318 C163.220923,58.7388533 163.743692,53.846332 163.743691,51.8464843 C163.743691,49.8466366 160.716362,49.8028065 160.528401,49.8466364 C160.528401,49.8466364 158.980298,49.8466364 157.908535,51.8464843 Z" id="Path-2" fill="#7D7D7D" transform="translate(162.022197, 64.242832) rotate(92.000000) translate(-162.022197, -64.242832) "></path>
            <path d="M203.337639,107.693743 C202.265875,109.693591 202.742215,118.692906 202.742215,118.692906 C202.742215,118.692906 204.648616,131.691915 206.792143,133.691763 C208.93567,135.691611 213.578934,133.682958 211.911747,130.683188 C210.244559,127.683417 208.594291,119.191748 208.636728,115.685091 C208.650027,114.586112 209.172796,109.693591 209.172796,107.693743 C209.172795,105.693895 206.145467,105.650065 205.957505,105.693895 C205.957505,105.693895 204.409402,105.693895 203.337639,107.693743 Z" id="Path-2" fill="#7D7D7D" transform="translate(207.451302, 120.090090) rotate(193.000000) translate(-207.451302, -120.090090) "></path>
            <g id="Rectangle" transform="translate(216.632205, 68.947163) rotate(-132.000000) translate(-216.632205, -68.947163) ">
                <use fill="#474747" fill-rule="evenodd" xlink:href="#path-3"></use>
                <use stroke="#FAFAFA" mask="url(#mask-4)" stroke-width="6" xlink:href="#path-3"></use>
            </g>
            <path d="M160.854783,87.0935145 C159.296526,90.461247 159.989084,105.616042 159.989084,105.616042 C159.989084,105.616042 162.760838,127.506301 165.877352,130.874033 C168.993866,134.241765 175.744796,130.859206 173.320841,125.807609 C170.896885,120.756012 168.497529,106.45609 168.559228,100.550899 C168.578565,98.7002249 169.338628,90.4612467 169.338628,87.0935145 C169.338627,83.7257824 164.937137,83.6519727 164.663856,83.725782 C164.663856,83.725782 162.41304,83.725782 160.854783,87.0935145 Z" id="Path-2" stroke="#FAFAFA" fill="#7D7D7D" transform="translate(166.835715, 107.968893) rotate(149.000000) translate(-166.835715, -107.968893) "></path>
        </g>
    </g>
</svg>