<?xml version="1.0" encoding="UTF-8" standalone="no"?>
<svg width="270px" height="260px" viewBox="0 0 270 260" version="1.1" xmlns="http://www.w3.org/2000/svg" xmlns:xlink="http://www.w3.org/1999/xlink">
    <!-- Generator: Sketch 39.1 (31720) - http://www.bohemiancoding.com/sketch -->
    <title>Artboard 9</title>
    <desc>Created with Sketch.</desc>
    <defs>
        <path d="M50.9997374,142.447833 C50.9997374,138.366633 52.9997475,132.427069 55.4708187,129.176272 L58.4997374,125.191602 L59.8214294,128.27286 C61.4288694,132.020281 62.8397512,138.354996 62.9729079,142.427527 L65.7587865,227.632239 C65.89186,231.702225 62.6893543,235.0016 58.6095971,235.0016 L58.3898776,235.0016 C54.3084158,235.0016 50.9997374,231.70477 50.9997374,227.611933 L50.9997374,142.447833 Z" id="path-1"></path>
        <mask id="mask-2" maskContentUnits="userSpaceOnUse" maskUnits="objectBoundingBox" x="-3" y="-3" width="20.7630506" height="115.809998">
            <rect x="47.9997374" y="122.191602" width="20.7630506" height="115.809998" fill="white"></rect>
            <use xlink:href="#path-1" fill="black"></use>
        </mask>
        <path d="M192.240974,111.290625 C192.240974,111.290625 201.869314,111.310356 205.241209,108.672724 C208.128552,106.414128 202.861097,93.7692768 197.859068,94.8950828 C196.10975,95.2888015 197.370698,103.673549 195.105839,104.705638 C177.859474,112.564748 195.105839,82.6821137 195.105839,82.6821137 L197.425468,0.167033977 C197.664938,-8.35154185 202.966088,-10.6135217 205.24121,-8.54480806 L205.24121,-8.54480806 L205.24121,-8.54480806 C209.448436,-12.2519664 212.859068,-8.34053036 212.859068,0.178546322 L212.859067,80.649895 L217.770691,104.794758 C219.470236,113.149486 213.947916,119.922332 205.416633,119.922331 L204.389077,119.922331 C195.866574,119.922331 191.412471,113.468768 192.240974,111.290625 L192.240974,111.290625 Z" id="path-3"></path>
        <mask id="mask-4" maskContentUnits="userSpaceOnUse" maskUnits="objectBoundingBox" x="-3" y="-3" width="36.6371155" height="135.866877">
            <rect x="184.440788" y="-12.944546" width="36.6371155" height="135.866877" fill="white"></rect>
            <use xlink:href="#path-3" fill="black"></use>
        </mask>
    </defs>
    <g id="Page-1" stroke="none" stroke-width="1" fill="none" fill-rule="evenodd">
        <g id="Artboard-9">
            <g id="Group-2" transform="translate(11.000000, 14.000000)">
                <g id="Group" transform="translate(0.000000, 23.000000)" stroke="#474747" stroke-width="10">
                    <path d="M12.3018514,107.676985 C4.54807322,96.5751618 0,83.0687106 0,68.5 C0,30.6684946 30.6684946,0 68.5,0 C85.2512195,0 100.59807,6.01281822 112.5,15.9979029 C124.40193,6.01281822 139.74878,0 156.5,0 C194.331505,0 225,30.6684946 225,68.5 C225,83.8191701 219.9713,97.9638244 211.474582,109.373282 C210.899452,110.480004 207.109649,117.509154 198.773438,127.242187 C190.891346,136.445008 178.029431,148.489299 171.189453,155.03418 C169.507773,156.643307 167.638956,158.37066 165.631652,160.180879 C162.426211,163.621753 158.870757,166.73223 155.021983,169.455615 C154.17397,170.178991 153.318012,170.905781 152.456458,171.634277 C133.791118,187.416956 121,202 112.5,204 C104,206 57.2148438,160.478516 57.2148438,160.478516 C57.2148438,160.478516 34.7844914,139.201051 24.71875,127.242187 C20.5587133,122.299749 14.5419116,111.713363 12.3018514,107.676985 Z" id="Combined-Shape"></path>
                </g>
                <path d="M113.065745,194.856602 L106.322132,188.784625 C104.883388,187.489175 102.667367,187.602471 101.37394,189.038968 C100.083144,190.472541 100.198834,192.690612 101.638217,193.986639 L110.545499,202.006792 C111.740801,203.083046 113.472595,203.186954 114.766121,202.367571 C115.143203,202.224719 115.501912,202.013966 115.824018,201.733963 L124.869914,193.870486 C126.331047,192.600342 126.48866,190.387031 125.2205,188.92818 C123.954921,187.472298 121.739284,187.31681 120.277501,188.587519 L113.065745,194.856602 Z" id="Combined-Shape" fill="#474747"></path>
                <path d="M113.588438,65.4746585 L106.844824,59.4026816 C105.406081,58.107231 103.19006,58.2205276 101.896632,59.6570241 C100.605837,61.0905975 100.721526,63.3086684 102.16091,64.6046954 L111.068192,72.6248481 C112.263493,73.7011021 113.995288,73.8050099 115.288814,72.9856269 C115.665896,72.8427757 116.024605,72.6320219 116.346711,72.3520196 L125.392607,64.4885419 C126.85374,63.2183982 127.011353,61.0050875 125.743193,59.5462365 C124.477614,58.0903539 122.261977,57.934866 120.800194,59.2055749 L113.588438,65.4746585 Z" id="Combined-Shape" fill="#474747"></path>
                <path d="M45.7164386,133.656087 C45.7164386,131.718349 47.2861613,130.147503 49.2152893,130.147503 L49.2253551,130.147503 L50.2220721,130.147503 C52.1519574,130.147503 53.7164386,131.710786 53.7164386,133.639803 L53.7164386,133.937171 L53.7164386,153.690011 C53.7164386,155.627145 52.1549668,157.197502 50.2075221,157.197502 L49.2253551,157.197502 C47.287434,157.197502 45.7164386,155.62626 45.7164386,153.688918 L45.7164386,133.656087 Z" id="Rectangle" fill="#474747" transform="translate(49.716439, 143.672502) rotate(-45.000000) translate(-49.716439, -143.672502) "></path>
                <rect id="Rectangle" fill="#474747" transform="translate(82.869915, 172.450394) rotate(-47.000000) translate(-82.869915, -172.450394) " x="78.8699147" y="159.950394" width="8" height="25" rx="4"></rect>
                <rect id="Rectangle" fill="#474747" transform="translate(175.550142, 143.611406) rotate(-134.000000) translate(-175.550142, -143.611406) " x="171.550142" y="129.206406" width="8" height="28.8099995" rx="4"></rect>
                <rect id="Rectangle" fill="#474747" transform="translate(144.381523, 172.611406) rotate(-132.000000) translate(-144.381523, -172.611406) " x="140.381523" y="158.206406" width="8" height="28.8099995" rx="4"></rect>
                <rect id="Rectangle" fill="#474747" transform="translate(144.381523, 172.611406) rotate(-132.000000) translate(-144.381523, -172.611406) " x="140.381523" y="158.206406" width="8" height="28.8099995" rx="4"></rect>
                <g id="Rectangle" transform="translate(58.381263, 180.096601) rotate(-132.000000) translate(-58.381263, -180.096601) ">
                    <use fill="#474747" fill-rule="evenodd" xlink:href="#path-1"></use>
                    <use stroke="#FAFAFA" mask="url(#mask-2)" stroke-width="6" xlink:href="#path-1"></use>
                </g>
                <path d="M27.7009111,94.0086524 C26.6291476,96.0085003 27.1054869,105.007815 27.1054869,105.007815 C27.1054869,105.007815 29.0118884,118.006825 31.1554154,120.006672 C33.2989424,122.00652 37.9422066,119.997868 36.2750189,116.998097 C34.6078313,113.998326 32.9575634,105.506658 33,102 C33.0132995,100.901021 33.536068,96.0085002 33.5360678,94.0086525 C33.5360676,92.0088048 30.5087387,91.9649746 30.3207774,92.0088046 C30.3207774,92.0088046 28.7726745,92.0088046 27.7009111,94.0086524 Z" id="Path-2" fill="#474747"></path>
                <path d="M39.7050186,53.9489953 C38.6332551,55.9488432 39.1095944,64.9481579 39.1095944,64.9481579 C39.1095944,64.9481579 41.0159959,77.9471675 43.1595229,79.9470153 C45.3030499,81.9468631 49.9463141,79.9382107 48.2791265,76.93844 C46.6119388,73.9386693 44.9616709,65.4470006 45.0041075,61.9403428 C45.017407,60.8413643 45.5401756,55.948843 45.5401753,53.9489953 C45.5401751,51.9491476 42.5128463,51.9053175 42.3248849,51.9491474 C42.3248849,51.9491474 40.776782,51.9491474 39.7050186,53.9489953 Z" id="Path-2" fill="#474747" transform="translate(43.818681, 66.345343) rotate(44.000000) translate(-43.818681, -66.345343) "></path>
                <path d="M182.024219,54.0874778 C180.952455,56.0873257 181.428795,65.0866404 181.428795,65.0866404 C181.428795,65.0866404 183.335196,78.08565 185.478723,80.0854978 C187.62225,82.0853456 192.265514,80.0766932 190.598327,77.0769225 C188.931139,74.0771518 187.280871,65.5854831 187.323308,62.0788253 C187.336607,60.9798468 187.859376,56.0873255 187.859376,54.0874778 C187.859375,52.0876301 184.832047,52.0438 184.644085,52.0876299 C184.644085,52.0876299 183.095982,52.0876299 182.024219,54.0874778 Z" id="Path-2" fill="#474747" transform="translate(186.137882, 66.483825) rotate(155.000000) translate(-186.137882, -66.483825) "></path>
                <path d="M73.9085347,37.8464843 C72.8367712,39.8463322 73.3131105,48.8456469 73.3131105,48.8456469 C73.3131105,48.8456469 75.219512,61.8446565 77.363039,63.8445043 C79.5065659,65.8443521 84.1498302,63.8356997 82.4826425,60.835929 C80.8154549,57.8361582 79.165187,49.3444895 79.2076236,45.8378318 C79.2209231,44.7388533 79.7436916,39.846332 79.7436914,37.8464843 C79.7436912,35.8466366 76.7163623,35.8028065 76.5284009,35.8466364 C76.5284009,35.8466364 74.9802981,35.8466364 73.9085347,37.8464843 Z" id="Path-2" fill="#474747" transform="translate(78.022197, 50.242832) rotate(102.000000) translate(-78.022197, -50.242832) "></path>
                <path d="M89.3547827,125.093515 C87.7965255,128.461247 88.4890843,143.616042 88.4890843,143.616042 C88.4890843,143.616042 91.2608375,165.506301 94.377352,168.874033 C97.4938664,172.241765 104.244796,168.859206 101.820841,163.807609 C99.3968848,158.756012 96.9975291,144.45609 97.0592285,138.550899 C97.0785649,136.700225 97.8386279,128.461247 97.8386276,125.093515 C97.8386272,121.725782 93.4371365,121.651973 93.1638559,121.725782 C93.1638559,121.725782 90.9130399,121.725782 89.3547827,125.093515 Z" id="Path-2" fill="#474747" transform="translate(95.335715, 145.968893) rotate(149.000000) translate(-95.335715, -145.968893) "></path>
                <path d="M143.908535,37.8464843 C142.836771,39.8463322 143.31311,48.8456469 143.31311,48.8456469 C143.31311,48.8456469 145.219512,61.8446565 147.363039,63.8445043 C149.506566,65.8443521 154.14983,63.8356997 152.482643,60.835929 C150.815455,57.8361582 149.165187,49.3444895 149.207624,45.8378318 C149.220923,44.7388533 149.743692,39.846332 149.743691,37.8464843 C149.743691,35.8466366 146.716362,35.8028065 146.528401,35.8466364 C146.528401,35.8466364 144.980298,35.8466364 143.908535,37.8464843 Z" id="Path-2" fill="#474747" transform="translate(148.022197, 50.242832) rotate(92.000000) translate(-148.022197, -50.242832) "></path>
                <path d="M189.337639,93.693743 C188.265875,95.6935908 188.742215,104.692906 188.742215,104.692906 C188.742215,104.692906 190.648616,117.691915 192.792143,119.691763 C194.93567,121.691611 199.578934,119.682958 197.911747,116.683188 C196.244559,113.683417 194.594291,105.191748 194.636728,101.685091 C194.650027,100.586112 195.172796,95.6935907 195.172796,93.693743 C195.172795,91.6938953 192.145467,91.6500651 191.957505,91.6938951 C191.957505,91.6938951 190.409402,91.6938951 189.337639,93.693743 Z" id="Path-2" fill="#474747" transform="translate(193.451302, 106.090090) rotate(193.000000) translate(-193.451302, -106.090090) "></path>
                <g id="Rectangle" transform="translate(202.759346, 54.988893) rotate(-132.000000) translate(-202.759346, -54.988893) ">
                    <use fill="#474747" fill-rule="evenodd" xlink:href="#path-3"></use>
                    <use stroke="#FAFAFA" mask="url(#mask-4)" stroke-width="6" xlink:href="#path-3"></use>
                </g>
                <path d="M146.854783,73.0935145 C145.296526,76.461247 145.989084,91.6160421 145.989084,91.6160421 C145.989084,91.6160421 148.760838,113.506301 151.877352,116.874033 C154.993866,120.241765 161.744796,116.859206 159.320841,111.807609 C156.896885,106.756012 154.497529,92.4560903 154.559228,86.5508985 C154.578565,84.7002249 155.338628,76.4612467 155.338628,73.0935145 C155.338627,69.7257824 150.937137,69.6519727 150.663856,69.725782 C150.663856,69.725782 148.41304,69.725782 146.854783,73.0935145 Z" id="Path-2" stroke="#FAFAFA" fill="#474747" transform="translate(152.835715, 93.968893) rotate(149.000000) translate(-152.835715, -93.968893) "></path>
            </g>
        </g>
    </g>
</svg>