<?xml version="1.0" encoding="UTF-8" standalone="no"?>
<svg width="304px" height="260px" viewBox="0 0 304 260" version="1.1" xmlns="http://www.w3.org/2000/svg" xmlns:xlink="http://www.w3.org/1999/xlink">
    <!-- Generator: Sketch 39.1 (31720) - http://www.bohemiancoding.com/sketch -->
    <title>Artboard 9 Copy 2</title>
    <desc>Created with Sketch.</desc>
    <defs></defs>
    <g id="Page-1" stroke="none" stroke-width="1" fill="none" fill-rule="evenodd">
        <g id="Artboard-9-Copy-2">
            <ellipse id="Oval-4" fill="#D8D8D8" cx="31.8923098" cy="208.225791" rx="17.8923098" ry="5.22579057"></ellipse>
            <rect id="Rectangle-2" fill="#474747" x="25.5" y="88.5" width="10.8631881" height="13.0644764" rx="4"></rect>
            <rect id="Rectangle" fill="#474747" x="27" y="103" width="7.66813277" height="100.596468"></rect>
            <ellipse id="Oval-4" fill="#474747" cx="31.8923098" cy="208.225791" rx="17.8923098" ry="5.22579057"></ellipse>
            <path d="M42.2733865,107.862888 C44.1904197,110.475784 49.9415193,113.088679 49.9415193,113.088679 C49.9415193,113.088679 54.4145967,114.395127 58.2486631,113.088679 C62.0827295,111.782231 65.9167959,103.290322 65.9167959,103.290322 C65.9167959,103.290322 67.194818,102.637098 67.8338291,103.290322 C68.4728401,103.943546 68.4728401,105.903217 67.8338291,107.862888 C67.470958,108.975715 66.4038225,110.776466 65.2777848,112.435455 C64.9025017,112.988359 64.0067336,114.198214 62.7217405,115.048351 C61.0726561,116.139366 58.9504375,116.844888 58.2486631,117.008022 C55.8182966,117.572983 50.5805303,117.008022 50.5805303,117.008022 C50.5805303,117.008022 46.1074529,116.354798 43.5514086,114.395127 C40.9953644,112.435455 39.0783312,109.82256 39.0783312,109.82256 C39.0783312,109.82256 37.161298,107.862888 38.4393201,106.556441 C39.7173422,105.249993 40.3563533,105.249993 42.2733865,107.862888 Z" id="Path-6" stroke="#B75151" opacity="0"></path>
            <path d="M42.2733865,107.862888 C44.1904197,110.475784 49.9415193,113.088679 49.9415193,113.088679 C49.9415193,113.088679 54.4145967,114.395127 58.2486631,113.088679 C62.0827295,111.782231 65.9167959,103.290322 65.9167959,103.290322 C65.9167959,103.290322 67.194818,102.637098 67.8338291,103.290322 C68.4728401,103.943546 68.4728401,105.903217 67.8338291,107.862888 C67.470958,108.975715 66.4038225,110.776466 65.2777848,112.435455 C64.9025017,112.988359 64.0067336,114.198214 62.7217405,115.048351 C61.0726561,116.139366 58.9504375,116.844888 58.2486631,117.008022 C55.8182966,117.572983 50.5805303,117.008022 50.5805303,117.008022 C50.5805303,117.008022 46.1074529,116.354798 43.5514086,114.395127 C40.9953644,112.435455 39.0783312,109.82256 39.0783312,109.82256 C39.0783312,109.82256 37.161298,107.862888 38.4393201,106.556441 C39.7173422,105.249993 40.3563533,105.249993 42.2733865,107.862888 Z" id="Path-6" stroke="#B75151" opacity="0"></path>
            <path d="M37.3951098,103.105378 C38.06222,101.746755 48.3833369,113.974365 53.0721983,113.974365 C57.725663,113.974365 66.928133,104.827601 66.928133,104.827601 C67.9339285,103.876444 68.7492869,104.217538 68.7492869,105.609531 L68.7492869,103.997784 C68.7492869,105.380789 67.9390457,107.283607 66.934676,108.22416 C66.934676,108.22416 57.771592,117.370924 53.0721983,117.370924 C48.4292658,117.370924 39.3962397,108.206836 38.6148697,107.665109 C37.8334997,107.123382 38.6148697,107.665109 38.6148697,107.665109 C37.9412149,107.022706 37.157194,105.407515 37.1322674,104.030306 C37.1322674,104.030306 36.7279996,104.464001 37.3951098,103.105378 Z" id="Rectangle-5" fill="#474747"></path>
            <path d="M39.202461,65.4621698 C39.2492174,65.4485893 39.2955985,65.4340971 39.3415847,65.4187132 L45.0992019,71.7172563 L41.0777784,64.2829332 L49.3741227,66.1151626 L41.8689318,62.3204037 C41.8888361,62.1703101 41.9001711,62.0174339 41.9024166,61.8623068 L49.3653872,58.2952538 L41.3868489,59.8718666 C41.3818248,59.8631864 41.3767679,59.8545285 41.3716783,59.8458929 L45.6798843,52.7020792 L39.9448866,58.4556922 C39.7053745,58.3238231 39.450098,58.2180175 39.1826908,58.1419898 L38.196369,50 L37.2109196,58.1347886 C37.0910758,58.1679111 36.9736313,58.207004 36.8589104,58.2517359 L31.7715097,52.3624941 L35.2849328,59.4236009 C35.1746384,59.5637343 35.0738674,59.712032 34.9836245,59.867467 L27.0273508,58.2952538 L34.4653516,61.8503721 C34.4668542,61.9814819 34.4748495,62.1109959 34.4890241,62.2385938 L26.8698997,65.5657024 L35.2580138,64.1516304 C35.282893,64.1840006 35.3082751,64.2159478 35.3341482,64.2474596 L31.2935361,71.7172563 L37.0453828,65.4250258 C37.0569786,65.4288339 37.0685993,65.4325854 37.0802444,65.4362799 L37.7489128,74.065319 L39.202461,65.4621698 Z" id="Combined-Shape" fill="#474747"></path>
            <ellipse id="Oval" fill="#D8D8D8" cx="236.502199" cy="169.592731" rx="11.5021992" ry="3.59273102"></ellipse>
            <ellipse id="Oval" fill="#D8D8D8" cx="209.348627" cy="143.286283" rx="7.34862724" ry="2.28628337"></ellipse>
            <ellipse id="Oval" fill="#D8D8D8" cx="190.112089" cy="125.63306" rx="5.11208851" ry="1.63305955"></ellipse>
            <ellipse id="Oval" fill="#474747" cx="236.502199" cy="169.592731" rx="11.5021992" ry="3.59273102"></ellipse>
            <rect id="Rectangle-2" fill="#474747" x="233" y="92" width="7.66813277" height="9.79835731" rx="3"></rect>
            <rect id="Rectangle" fill="#474747" x="234" y="103" width="5.11208851" height="63.3627106"></rect>
            <ellipse id="Oval" fill="#474747" cx="209.348627" cy="143.286283" rx="7.34862724" ry="2.28628337"></ellipse>
            <rect id="Rectangle-2" fill="#474747" x="206.5" y="92.5" width="5.11208851" height="6.53223821" rx="2"></rect>
            <rect id="Rectangle" fill="#474747" x="207" y="100" width="3.83406639" height="41.8063245"></rect>
            <ellipse id="Oval" fill="#474747" cx="190.112089" cy="125.63306" rx="5.11208851" ry="1.63305955"></ellipse>
            <rect id="Rectangle-2" fill="#474747" x="188.5" y="93.5" width="3.19505532" height="4.57256675" rx="1"></rect>
            <rect id="Rectangle" fill="#474747" x="189" y="99" width="1.91703319" height="25.475729"></rect>
            <text id="474747" font-family="Helvetica" font-size="12" font-weight="normal" fill="#000000">
                <tspan x="131" y="183">474</tspan>
                <tspan x="131" y="197">747</tspan>
            </text>
            <polygon id="Path-5" stroke="#979797" points="129.24177 121 178.462217 121 278.770359 250.338317 27 250.338317"></polygon>
            <polygon id="Path-5" fill="#474747" points="129.24177 121 178.462217 121 278.770359 250.338317 27 250.338317"></polygon>
            <rect id="Rectangle-2" fill="#474747" x="272.5" y="88.5" width="10.8631881" height="13.0644764" rx="4"></rect>
            <rect id="Rectangle" fill="#474747" x="274" y="103" width="7.66813277" height="100.596468"></rect>
            <ellipse id="Oval-4" fill="#D8D8D8" cx="277.89231" cy="208.225791" rx="17.8923098" ry="5.22579057"></ellipse>
            <ellipse id="Oval-4" fill="#474747" cx="277.89231" cy="208.225791" rx="17.8923098" ry="5.22579057"></ellipse>
            <path d="M240.39511,105.105378 C241.06222,103.746755 251.383337,115.974365 256.072198,115.974365 C260.725663,115.974365 269.928133,106.827601 269.928133,106.827601 C270.933929,105.876444 271.749287,106.217538 271.749287,107.609531 L271.749287,105.997784 C271.749287,107.380789 270.939046,109.283607 269.934676,110.22416 C269.934676,110.22416 260.771592,119.370924 256.072198,119.370924 C251.429266,119.370924 242.39624,110.206836 241.61487,109.665109 C240.8335,109.123382 241.61487,109.665109 241.61487,109.665109 C240.941215,109.022706 240.157194,107.407515 240.132267,106.030306 C240.132267,106.030306 239.728,106.464001 240.39511,105.105378 Z" id="Rectangle-5" fill="#474747"></path>
            <path d="M213.295858,100.049304 C213.808598,99.2910417 218.996673,107.523728 221.812192,107.928224 C224.606456,108.329667 230.815995,103.68033 230.815995,103.68033 C231.537884,103.168815 232.023442,103.478955 231.900789,104.371089 L232.064991,103.176743 C231.942217,104.069753 231.260039,105.215673 230.530719,105.726668 C230.530719,105.726668 224.353634,110.37316 221.531791,109.967755 C218.743851,109.567221 214.076328,103.285207 213.651861,102.892509 C213.227394,102.499812 213.651861,102.892509 213.651861,102.892509 C213.300385,102.448652 212.963251,101.363129 213.092545,100.477472 C213.092545,100.477472 212.783118,100.807566 213.295858,100.049304" id="Rectangle-5" fill="#474747"></path>
            <path d="M192.157462,99.0433851 C192.511751,98.4323034 196.932952,104.476004 199.118624,104.63224 C201.287795,104.787297 205.523715,101.10356 205.523715,101.10356 C206.21364,100.542753 206.72322,100.814894 206.66463,101.671406 L206.772935,100.08813 C206.71312,100.962549 206.11496,102.129555 205.419473,102.687126 C205.419473,102.687126 201.2009,106.372103 199.010319,106.215516 C196.846057,106.06081 192.927603,101.488064 192.580648,101.209507 C192.233693,100.93095 192.580648,101.209507 192.580648,101.209507 C192.287114,100.88761 191.966024,99.9015253 192.157462,99.0433851 C192.157462,99.0433851 191.803173,99.6544668 192.157462,99.0433851" id="Rectangle-5" fill="#474747"></path>
            <path d="M175.919039,84.2401189 C175.995363,84.2179503 176.071075,84.1942936 176.146142,84.1691812 L185.544754,94.4507898 L178.980268,82.315158 L192.523044,85.3060506 L180.27173,79.1115663 C180.304221,78.8665568 180.322724,78.6170049 180.32639,78.3637787 L192.508785,72.5409968 L179.484788,75.1146262 C179.476587,75.1004569 179.468332,75.0863238 179.460024,75.0722272 L186.492648,63.4108169 L177.130959,72.8028931 C176.739985,72.5876327 176.323277,72.4149179 175.886767,72.290812 L174.276716,59 L172.668089,72.2790567 C172.472459,72.3331252 172.280745,72.3969397 172.093477,72.4699591 L163.788911,62.8564854 L169.524149,74.3828868 C169.344107,74.6116376 169.17961,74.8537155 169.0323,75.1074443 L156.044647,72.5409968 L168.186282,78.3442967 C168.188735,78.5583175 168.201786,78.7697335 168.224925,78.9780216 L155.787627,84.4091234 L169.480207,82.100822 C169.520819,82.1536625 169.562253,82.2058124 169.604487,82.2572516 L163.008678,94.4507898 L172.39787,84.1794858 C172.416799,84.185702 172.435768,84.1918259 172.454778,84.1978568 L173.546298,98.2837176 L175.919039,84.2401189 Z" id="Combined-Shape" fill="#474747"></path>
            <path d="M216.624193,73.3937493 C216.649575,73.386377 216.674753,73.3785098 216.699717,73.3701586 L219.825281,76.7893677 L217.642223,72.7535923 L222.145952,73.7482311 L218.071702,71.6882172 C218.082511,71.6067398 218.088664,71.5237498 218.089883,71.439538 L222.14121,69.5031378 L217.810004,70.3590133 C217.807276,70.3543012 217.804531,70.3496012 217.801768,70.3449133 L220.140509,66.466843 L217.027224,69.5902329 C216.897203,69.5186468 216.758625,69.4612095 216.613461,69.4199373 L216.078029,65 L215.543071,69.4160281 C215.478013,69.4340089 215.414257,69.4552308 215.35198,69.4795138 L212.590248,66.2824968 L214.497535,70.1156691 C214.437661,70.1917415 214.382957,70.2722459 214.333968,70.3566249 L210.014848,69.5031378 L214.052619,71.4330591 C214.053435,71.504233 214.057775,71.5745406 214.06547,71.6438081 L209.929374,73.4499528 L214.482922,72.6823136 C214.496428,72.699886 214.510206,72.7172288 214.524252,72.7343352 L212.330777,76.7893677 L215.453208,73.3735854 C215.459503,73.3756527 215.465811,73.3776892 215.472133,73.3796948 L215.835124,78.0640303 L216.624193,73.3937493 Z" id="Combined-Shape" fill="#474747"></path>
            <path d="M216.624193,73.3937493 C216.649575,73.386377 216.674753,73.3785098 216.699717,73.3701586 L219.825281,76.7893677 L217.642223,72.7535923 L222.145952,73.7482311 L218.071702,71.6882172 C218.082511,71.6067398 218.088664,71.5237498 218.089883,71.439538 L222.14121,69.5031378 L217.810004,70.3590133 C217.807276,70.3543012 217.804531,70.3496012 217.801768,70.3449133 L220.140509,66.466843 L217.027224,69.5902329 C216.897203,69.5186468 216.758625,69.4612095 216.613461,69.4199373 L216.078029,65 L215.543071,69.4160281 C215.478013,69.4340089 215.414257,69.4552308 215.35198,69.4795138 L212.590248,66.2824968 L214.497535,70.1156691 C214.437661,70.1917415 214.382957,70.2722459 214.333968,70.3566249 L210.014848,69.5031378 L214.052619,71.4330591 C214.053435,71.504233 214.057775,71.5745406 214.06547,71.6438081 L209.929374,73.4499528 L214.482922,72.6823136 C214.496428,72.699886 214.510206,72.7172288 214.524252,72.7343352 L212.330777,76.7893677 L215.453208,73.3735854 C215.459503,73.3756527 215.465811,73.3776892 215.472133,73.3796948 L215.835124,78.0640303 L216.624193,73.3937493 Z" id="Combined-Shape" fill="#474747"></path>
            <path d="M235.624193,35.3937493 C235.649575,35.386377 235.674753,35.3785098 235.699717,35.3701586 L238.825281,38.7893677 L236.642223,34.7535923 L241.145952,35.7482311 L237.071702,33.6882172 C237.082511,33.6067398 237.088664,33.5237498 237.089883,33.439538 L241.14121,31.5031378 L236.810004,32.3590133 C236.807276,32.3543012 236.804531,32.3496012 236.801768,32.3449133 L239.140509,28.466843 L236.027224,31.5902329 C235.897203,31.5186468 235.758625,31.4612095 235.613461,31.4199373 L235.078029,27 L234.543071,31.4160281 C234.478013,31.4340089 234.414257,31.4552308 234.35198,31.4795138 L231.590248,28.2824968 L233.497535,32.1156691 C233.437661,32.1917415 233.382957,32.2722459 233.333968,32.3566249 L229.014848,31.5031378 L233.052619,33.4330591 C233.053435,33.504233 233.057775,33.5745406 233.06547,33.6438081 L228.929374,35.4499528 L233.482922,34.6823136 C233.496428,34.699886 233.510206,34.7172288 233.524252,34.7343352 L231.330777,38.7893677 L234.453208,35.3735854 C234.459503,35.3756527 234.465811,35.3776892 234.472133,35.3796948 L234.835124,40.0640303 L235.624193,35.3937484 Z" id="Combined-Shape" fill="#474747"></path>
            <path d="M256.688878,64.8799326 C256.748994,64.862472 256.808627,64.8438391 256.867752,64.8240598 L264.270402,72.9221867 L259.100001,63.3637713 L269.766729,65.7194948 L260.117198,60.840519 C260.142789,60.6475416 260.157363,60.4509865 260.16025,60.2515373 L269.755498,55.6653263 L259.497377,57.6923999 C259.490918,57.6812397 259.484416,57.670108 259.477872,57.6590051 L265.016994,48.4741018 L257.643426,55.8716043 C257.335481,55.7020582 257.007269,55.5660225 256.66346,55.4682727 L255.395332,45 L254.128325,55.4590139 C253.97424,55.5016 253.82324,55.5518623 253.675742,55.6093747 L247.134798,48.0374925 L251.652056,57.1160584 C251.510249,57.2962298 251.380687,57.4868982 251.26466,57.6867432 L241.035165,55.6653263 L250.598309,60.2361927 C250.600241,60.4047624 250.610521,60.5712804 250.628745,60.7353349 L240.832728,65.013046 L251.617446,63.1949533 C251.649434,63.2365722 251.682068,63.2776471 251.715333,63.3181623 L246.520261,72.9221867 L253.915492,64.832176 C253.930401,64.8370721 253.945342,64.8418955 253.960314,64.8466456 L254.820031,75.9411245 L256.688878,64.8799326 Z" id="Combined-Shape" fill="#474747"></path>
            <path d="M193.202461,40.4621698 C193.249217,40.4485893 193.295599,40.4340971 193.341585,40.4187132 L199.099202,46.7172563 L195.077778,39.2829332 L203.374123,41.1151626 L195.868932,37.3204037 C195.888836,37.1703101 195.900171,37.0174339 195.902417,36.8623068 L203.365387,33.2952538 L195.386849,34.8718666 C195.381825,34.8631864 195.376768,34.8545285 195.371678,34.8458929 L199.679884,27.7020792 L193.944887,33.4556922 C193.705374,33.3238231 193.450098,33.2180175 193.182691,33.1419898 L192.196369,25 L191.21092,33.1347886 C191.091076,33.1679111 190.973631,33.207004 190.85891,33.2517359 L185.77151,27.3624941 L189.284933,34.4236009 C189.174638,34.5637343 189.073867,34.712032 188.983624,34.867467 L181.027351,33.2952538 L188.465352,36.8503721 C188.466854,36.9814819 188.474849,37.1109959 188.489024,37.2385938 L180.8699,40.5657024 L189.258014,39.1516304 C189.282893,39.1840006 189.308275,39.2159478 189.334148,39.2474596 L185.293536,46.7172563 L191.045383,40.4250258 C191.056979,40.4288339 191.068599,40.4325854 191.080244,40.4362799 L191.748913,49.065319 L193.202461,40.4621698 Z" id="Combined-Shape" fill="#474747"></path>
            <ellipse id="Oval" fill="#474747" cx="72.5021992" cy="169.592731" rx="11.5021992" ry="3.59273102"></ellipse>
            <ellipse id="Oval" fill="#474747" cx="99.3486272" cy="143.286283" rx="7.34862724" ry="2.28628337"></ellipse>
            <ellipse id="Oval" fill="#474747" cx="118.112089" cy="125.63306" rx="5.11208851" ry="1.63305955"></ellipse>
            <rect id="Rectangle-2" fill="#474747" x="68.6999969" y="92" width="7.66813277" height="9.79835731" rx="3"></rect>
            <rect id="Rectangle-2" fill="#474747" x="97" y="92.5" width="5.11208851" height="6.53223821" rx="2"></rect>
            <rect id="Rectangle-2" fill="#474747" x="117" y="93.5" width="3.19505532" height="4.57256675" rx="1"></rect>
            <rect id="Rectangle" fill="#474747" x="70" y="103" width="5.11208851" height="63.3627106"></rect>
            <rect id="Rectangle" fill="#474747" x="97.5" y="100" width="3.83406639" height="41.8063245"></rect>
            <rect id="Rectangle" fill="#474747" x="117.5" y="99" width="1.91703319" height="25.475729"></rect>
            <ellipse id="Oval" fill="#474747" cx="118.112089" cy="125.63306" rx="5.11208851" ry="1.63305955"></ellipse>
            <rect id="Rectangle-2" fill="#474747" x="117" y="93.5" width="3.19505532" height="4.57256675" rx="1"></rect>
            <rect id="Rectangle" fill="#474747" x="117.5" y="99" width="1.91703319" height="25.475729"></rect>
            <path d="M77.1434807,102.618832 C77.4169452,101.740458 84.7329594,108.062831 87.5411438,107.608166 C90.3281289,107.156933 94.9365823,100.854876 94.9365823,100.854876 C95.4806292,100.149958 96.0336739,100.301425 96.1715395,101.191235 L95.9869715,100 C96.1249726,100.890684 95.8003474,102.190419 95.2490451,102.89706 C95.2490451,102.89706 90.6708143,109.186696 87.8563221,109.642383 C85.0756448,110.092595 78.8153497,105.480079 78.2971144,105.231403 C77.778879,104.982727 78.2971144,105.231403 78.2971144,105.231403 C77.8340482,104.911987 77.2011746,103.974657 77.0715121,103.089057 C77.0715121,103.089057 76.8700161,103.497207 77.1434807,102.618832" id="Rectangle-5" fill="#474747"></path>
            <path d="M102.093661,100.342924 C102.304397,99.6660336 107.942239,104.53816 110.106273,104.187787 C112.25397,103.840059 115.570692,99.2766681 115.570692,99.2766681 C116.119525,98.5715838 116.675931,98.7195688 116.807324,99.5676016 L116.564443,98 C116.698582,98.8657625 116.372561,100.140408 115.817596,100.843618 C115.817596,100.843618 112.518049,105.404229 110.349154,105.755389 C108.206318,106.102329 103.382031,102.547848 102.98267,102.356214 C102.583309,102.16458 102.98267,102.356214 102.98267,102.356214 C102.625823,102.110067 102.095968,101.223092 102.093661,100.342924 C102.093661,100.342924 101.882924,101.019814 102.093661,100.342924" id="Rectangle-5" fill="#474747"></path>
            <path d="M71.6241931,32.3937493 C71.6495752,32.386377 71.6747535,32.3785098 71.6997174,32.3701586 L74.825281,35.7893677 L72.6422226,31.7535923 L77.1459523,32.7482311 L73.071702,30.6882172 C73.082511,30.6067398 73.0886643,30.5237498 73.0898833,30.439538 L77.1412102,28.5031378 L72.8100037,29.3590133 C72.8072763,29.3543012 72.8045311,29.3496012 72.8017682,29.3449133 L75.1405086,25.466843 L72.0272242,28.5902329 C71.8972033,28.5186468 71.7586246,28.4612095 71.6134607,28.4199373 L71.0780289,24 L70.5430706,28.4160281 C70.4780126,28.4340089 70.414257,28.4552308 70.3519799,28.4795138 L67.5902481,25.2824968 L69.497535,29.1156691 C69.4376608,29.1917415 69.3829566,29.2722459 69.3339676,29.3566249 L65.0148476,28.5031378 L69.0526194,30.4330591 C69.0534351,30.504233 69.0577754,30.5745406 69.0654702,30.6438081 L64.9293741,32.4499528 L69.4829218,31.6823136 C69.4964276,31.699886 69.5102065,31.7172288 69.5242519,31.7343352 L67.3307767,35.7893677 L70.4532078,32.3735854 C70.4595027,32.3756527 70.465811,32.3776892 70.4721327,32.3796948 L70.8351241,37.0640303 L71.6241931,32.3937493 Z" id="Combined-Shape" fill="#474747"></path>
            <path d="M135.273819,82.4840481 C135.305522,82.4748399 135.33697,82.4650135 135.368151,82.4545825 L139.272075,86.7252787 L136.545368,81.6844725 L142.170664,82.9268066 L137.081806,80.353789 C137.095302,80.2520188 137.102988,80.1483619 137.10451,80.0431787 L142.164741,77.624556 L136.754932,78.6935705 C136.751525,78.687685 136.748097,78.6818145 136.744646,78.6759592 L139.665804,73.8321315 L135.777217,77.7333405 C135.614817,77.6439272 135.441728,77.5721863 135.260413,77.5206361 L134.591643,72 L133.923464,77.5157533 C133.842204,77.5382119 133.762572,77.5647186 133.684786,77.5950489 L130.235299,73.6018775 L132.617558,78.3896262 C132.542773,78.4846429 132.474446,78.5851954 132.413257,78.6905874 L127.018545,77.624556 L132.061845,80.0350864 C132.062864,80.1239848 132.068285,80.2118011 132.077896,80.2983182 L126.911786,82.5542479 L132.599306,81.5954432 C132.616175,81.6173917 132.633385,81.6390534 132.650928,81.6604198 L129.911211,86.7252787 L133.811222,82.4588627 C133.819085,82.4614448 133.826964,82.4639885 133.83486,82.4664936 L134.288247,88.317371 L135.273819,82.4840469 Z" id="Combined-Shape" fill="#474747"></path>
            <path d="M90.6888785,68.8799326 C90.7489938,68.862472 90.8086266,68.8438391 90.8677518,68.8240598 L98.2704024,76.9221867 L93.1000008,67.3637713 L103.766729,69.7194948 L94.1171981,64.840519 C94.1427892,64.6475416 94.1573628,64.4509865 94.1602499,64.2515373 L103.755498,59.6653263 L93.4973772,61.6923999 C93.4909176,61.6812397 93.4844158,61.670108 93.4778721,61.6590051 L99.0169942,52.4741018 L91.6434256,59.8716043 C91.3354815,59.7020582 91.0072689,59.5660225 90.6634595,59.4682727 L89.3953316,49 L88.1283252,59.4590139 C87.9742403,59.5016 87.8232402,59.5518623 87.675742,59.6093747 L81.1347982,52.0374925 L85.6520565,61.1160584 C85.5102493,61.2962298 85.3806867,61.4868982 85.2646601,61.6867432 L75.0351653,59.6653263 L84.5983092,64.2361927 C84.6002411,64.4047624 84.6105208,64.5712804 84.6287453,64.7353349 L74.8327282,69.013046 L85.6174463,67.1949533 C85.6494338,67.2365722 85.682068,67.2776471 85.7153334,67.3181623 L80.5202607,76.9221867 L87.9154922,68.832176 C87.9304011,68.8370721 87.9453419,68.8418955 87.9603143,68.8466456 L88.8200308,79.9411245 L90.6888785,68.8799326 Z" id="Combined-Shape" fill="#474747"></path>
            <path d="M136.202461,42.4621698 C136.249217,42.4485893 136.295599,42.4340971 136.341585,42.4187132 L142.099202,48.7172563 L138.077778,41.2829332 L146.374123,43.1151626 L138.868932,39.3204037 C138.888836,39.1703101 138.900171,39.0174339 138.902417,38.8623068 L146.365387,35.2952538 L138.386849,36.8718666 C138.381825,36.8631864 138.376768,36.8545285 138.371678,36.8458929 L142.679884,29.7020792 L136.944887,35.4556922 C136.705374,35.3238231 136.450098,35.2180175 136.182691,35.1419898 L135.196369,27 L134.21092,35.1347886 C134.091076,35.1679111 133.973631,35.207004 133.85891,35.2517359 L128.77151,29.3624941 L132.284933,36.4236009 C132.174638,36.5637343 132.073867,36.712032 131.983624,36.867467 L124.027351,35.2952538 L131.465352,38.8503721 C131.466854,38.9814819 131.474849,39.1109959 131.489024,39.2385938 L123.8699,42.5657024 L132.258014,41.1516304 C132.282893,41.1840006 132.308275,41.2159478 132.334148,41.2474596 L128.293536,48.7172563 L134.045383,42.4250258 C134.056979,42.4288339 134.068599,42.4325854 134.080244,42.4362799 L134.748913,51.065319 L136.202461,42.4621681 Z" id="Combined-Shape" fill="#474747"></path>
        </g>
    </g>
</svg>