<?xml version="1.0" encoding="UTF-8" standalone="no"?>
<svg width="225px" height="205px" viewBox="0 0 225 205" version="1.1" xmlns="http://www.w3.org/2000/svg" xmlns:xlink="http://www.w3.org/1999/xlink">
    <!-- Generator: Sketch 39.1 (31720) - http://www.bohemiancoding.com/sketch -->
    <title>Group</title>
    <desc>Created with Sketch.</desc>
    <defs></defs>
    <g id="Page-1" stroke="none" stroke-width="1" fill="none" fill-rule="evenodd">
        <g id="Artboard-8" transform="translate(-23.000000, -25.000000)" fill="#6B6B6B">
            <g id="Group" transform="translate(23.000000, 25.000000)">
                <path d="M12.3018514,107.676985 C4.54807322,96.5751618 0,83.0687106 0,68.5 C0,30.6684946 30.6684946,0 68.5,0 C85.2512195,0 100.59807,6.01281822 112.5,15.9979029 C124.40193,6.01281822 139.74878,0 156.5,0 C194.331505,0 225,30.6684946 225,68.5 C225,83.8191701 219.9713,97.9638244 211.474582,109.373282 C210.899452,110.480004 207.109649,117.509154 198.773438,127.242187 C190.891346,136.445008 178.029431,148.489299 171.189453,155.03418 C169.507773,156.643307 167.638956,158.37066 165.631652,160.180879 C162.426211,163.621753 158.870757,166.73223 155.021983,169.455615 C154.17397,170.178991 153.318012,170.905781 152.456458,171.634277 C133.791118,187.416956 121,202 112.5,204 C104,206 57.2148438,160.478516 57.2148438,160.478516 C57.2148438,160.478516 34.7844914,139.201051 24.71875,127.242187 C20.5587133,122.299749 14.5419116,111.713363 12.3018514,107.676985 Z" id="Combined-Shape"></path>
            </g>
        </g>
    </g>
</svg>