<?xml version="1.0" encoding="UTF-8" standalone="no"?>
<svg width="345px" height="254px" viewBox="0 0 345 254" version="1.1" xmlns="http://www.w3.org/2000/svg" xmlns:xlink="http://www.w3.org/1999/xlink">
    <!-- Generator: Sketch 39.1 (31720) - http://www.bohemiancoding.com/sketch -->
    <title>Artboard 5</title>
    <desc>Created with Sketch.</desc>
    <defs>
        <rect id="path-1" x="14" y="28" width="150" height="197" rx="4"></rect>
        <mask id="mask-2" maskContentUnits="userSpaceOnUse" maskUnits="objectBoundingBox" x="0" y="0" width="150" height="197" fill="white">
            <use xlink:href="#path-1"></use>
        </mask>
        <rect id="path-3" x="182" y="28" width="150" height="197" rx="4"></rect>
        <mask id="mask-4" maskContentUnits="userSpaceOnUse" maskUnits="objectBoundingBox" x="0" y="0" width="150" height="197" fill="white">
            <use xlink:href="#path-3"></use>
        </mask>
    </defs>
    <g id="Page-1" stroke="none" stroke-width="1" fill="none" fill-rule="evenodd">
        <g id="Artboard-5">
            <use id="Rectangle-4" stroke="#2E2E2E" mask="url(#mask-2)" stroke-width="10" xlink:href="#path-1"></use>
            <use id="Rectangle-4" stroke="#2E2E2E" mask="url(#mask-4)" stroke-width="10" xlink:href="#path-3"></use>
            <path d="M64.3333333,66 L78.3717949,66 C78.3717949,66 79.3076923,76.2948718 88.6666667,76.2948718 C98.025641,76.2948718 99.8974359,66 99.8974359,66 L113,66 L138.269231,78.1666667 L126.102564,95.9487179 L113,92.2051282 L113,86.5897436 L113,139 L64.3333333,139 L64.3333333,86.581388 L64.3333333,92.2051282 L52.1666667,95.9487179 L40,78.1666667 L64.3333333,66 Z" id="Path-3" fill="#2E2E2E"></path>
            <path d="M89.342867,209.046875 C102.787061,209.046875 113.685734,197.619643 113.685734,183.523438 C113.685734,169.427232 102.787061,158 89.342867,158 C75.8986728,158 65,169.427232 65,183.523438 C65,197.619643 75.8986728,209.046875 89.342867,209.046875 Z M89.4270983,202.864728 C99.5683936,202.864728 107.789538,194.244878 107.789538,183.611754 C107.789538,172.97863 99.5683936,164.35878 89.4270983,164.35878 C79.2858031,164.35878 71.0646589,172.97863 71.0646589,183.611754 C71.0646589,194.244878 79.2858031,202.864728 89.4270983,202.864728 Z" id="Combined-Shape" fill="#2D2D2D"></path>
            <path d="M87.342696,187.396392 L80.8268095,182.486319 L77,187.564667 L88.5704686,196.283641 L90.9431979,193.134922 L90.9669636,193.152831 L102.515949,177.826809 L97.4376015,174 L87.342696,187.396392 Z" id="Combined-Shape" fill="#2E2E2E"></path>
            <path d="M257.342867,209.046875 C270.787061,209.046875 281.685734,197.619643 281.685734,183.523438 C281.685734,169.427232 270.787061,158 257.342867,158 C243.898673,158 233,169.427232 233,183.523438 C233,197.619643 243.898673,209.046875 257.342867,209.046875 Z M257.427098,202.864728 C267.568394,202.864728 275.789538,194.244878 275.789538,183.611754 C275.789538,172.97863 267.568394,164.35878 257.427098,164.35878 C247.285803,164.35878 239.064659,172.97863 239.064659,183.611754 C239.064659,194.244878 247.285803,202.864728 257.427098,202.864728 Z" id="Combined-Shape" fill="#2D2D2D"></path>
            <path d="M254.342696,188.396392 L247.826809,183.486319 L244,188.564667 L255.570469,197.283641 L257.943198,194.134922 L257.966964,194.152831 L269.515949,178.826809 L264.437601,175 L254.342696,188.396392 Z" id="Combined-Shape" fill="#2E2E2E"></path>
            <path d="M240.254645,56 L245.254645,56 C245.254645,56 246.254645,72 256.254645,72 C266.254645,72 267.254645,56 267.254645,56 L273.254645,56 L270.254645,90 C270.254645,90 273.619047,95.8844435 276.254646,103 C279.304702,111.2345 281.718199,119.927105 282.254646,121 C283.254646,123 285.254645,139 283.254645,140 C281.254645,141 229.245387,140 229.245387,140 C229.245387,140 228.254645,128 230.254645,122 C231.238471,119.048522 233.541747,111.02044 236.254645,104 C239.056744,96.7487291 242.254645,90.5242611 242.254645,89 C242.254645,86 240.254645,56 240.254645,56 Z M256.5,82 C257.880712,82 259,80.8807119 259,79.5 C259,78.1192881 257.880712,77 256.5,77 C255.119288,77 254,78.1192881 254,79.5 C254,80.8807119 255.119288,82 256.5,82 Z M256.5,90 C257.880712,90 259,88.8807119 259,87.5 C259,86.1192881 257.880712,85 256.5,85 C255.119288,85 254,86.1192881 254,87.5 C254,88.8807119 255.119288,90 256.5,90 Z" id="Combined-Shape" fill="#2E2E2E"></path>
        </g>
    </g>
</svg>