<?xml version="1.0" encoding="UTF-8" standalone="no"?>
<svg width="395px" height="260px" viewBox="0 0 395 260" version="1.1" xmlns="http://www.w3.org/2000/svg" xmlns:xlink="http://www.w3.org/1999/xlink">
    <!-- Generator: Sketch 39.1 (31720) - http://www.bohemiancoding.com/sketch -->
    <title>Artboard 9 Copy</title>
    <desc>Created with Sketch.</desc>
    <defs>
        <rect id="path-1" x="8" y="14.4609375" width="178.780955" height="232.539063" rx="4"></rect>
        <mask id="mask-2" maskContentUnits="userSpaceOnUse" maskUnits="objectBoundingBox" x="0" y="0" width="178.780955" height="232.539063" fill="white">
            <use xlink:href="#path-1"></use>
        </mask>
        <rect id="path-3" x="208.23467" y="14.4609375" width="178.780955" height="232.539063" rx="4"></rect>
        <mask id="mask-4" maskContentUnits="userSpaceOnUse" maskUnits="objectBoundingBox" x="0" y="0" width="178.780955" height="232.539063" fill="white">
            <use xlink:href="#path-3"></use>
        </mask>
    </defs>
    <g id="Page-1" stroke="none" stroke-width="1" fill="none" fill-rule="evenodd">
        <g id="Artboard-9-Copy">
            <use id="Rectangle-4" stroke="#474747" mask="url(#mask-2)" stroke-width="10" xlink:href="#path-1"></use>
            <use id="Rectangle-4" stroke="#474747" mask="url(#mask-4)" stroke-width="10" xlink:href="#path-3"></use>
            <path d="M67.9909427,59.3161881 L84.7230065,59.3161881 C84.7230065,59.3161881 85.8384774,71.4682685 96.9931866,71.4682685 C108.147896,71.4682685 110.378838,59.3161881 110.378838,59.3161881 L125.99543,59.3161881 L156.113145,73.6777377 L141.612023,94.6676947 L125.99543,90.2487564 L125.99543,83.6203489 L125.99543,145.485485 L67.9909427,145.485485 L67.9909427,83.610486 L67.9909427,90.2487564 L53.4898208,94.6676947 L38.9886989,73.6777377 L67.9909427,59.3161881 Z" id="Path-3" fill="#474747"></path>
            <path d="M97.7991315,228.16891 C113.822904,228.16891 126.812738,214.68019 126.812738,198.04101 C126.812738,181.401831 113.822904,167.913111 97.7991315,167.913111 C81.775359,167.913111 68.7855248,181.401831 68.7855248,198.04101 C68.7855248,214.68019 81.775359,228.16891 97.7991315,228.16891 Z M97.8995246,220.871495 C109.986661,220.871495 119.785221,210.696613 119.785221,198.145259 C119.785221,185.593906 109.986661,175.419023 97.8995246,175.419023 C85.8123882,175.419023 76.0138282,185.593906 76.0138282,198.145259 C76.0138282,210.696613 85.8123882,220.871495 97.8995246,220.871495 Z" id="Combined-Shape" fill="#474747"></path>
            <path d="M95.4543867,202.665051 L87.6271222,196.766784 L83.1099512,202.761273 L96.9004807,213.153182 L99.6744964,209.471939 L99.7057198,209.495467 L113.470644,191.228795 L107.476156,186.711624 L95.4543867,202.665051 Z" id="Combined-Shape" fill="#474747"></path>
            <path d="M298.033801,228.16891 C314.057574,228.16891 327.047408,214.68019 327.047408,198.04101 C327.047408,181.401831 314.057574,167.913111 298.033801,167.913111 C282.010029,167.913111 269.020195,181.401831 269.020195,198.04101 C269.020195,214.68019 282.010029,228.16891 298.033801,228.16891 Z M298.134194,220.871495 C310.221331,220.871495 320.019891,210.696613 320.019891,198.145259 C320.019891,185.593906 310.221331,175.419023 298.134194,175.419023 C286.047058,175.419023 276.248498,185.593906 276.248498,198.145259 C276.248498,210.696613 286.047058,220.871495 298.134194,220.871495 Z" id="Combined-Shape" fill="#474747"></path>
            <path d="M294.497183,203.845452 L286.669919,197.947185 L282.152748,203.941674 L295.943277,214.333583 L298.717293,210.65234 L298.748517,210.675868 L312.513441,192.409197 L306.518953,187.892026 L294.497183,203.845452 Z" id="Combined-Shape" fill="#474747"></path>
            <path d="M277.666811,47.5121748 L283.626176,47.5121748 C283.626176,47.5121748 284.818049,66.3985961 296.736779,66.3985961 C308.65551,66.3985961 309.847383,47.5121748 309.847383,47.5121748 L316.998621,47.5121748 L313.423002,87.6458201 C313.423002,87.6458201 317.432941,94.5918251 320.574241,102.991037 C324.209521,112.711052 327.086102,122.971815 327.725479,124.238261 C328.917352,126.599064 331.301097,145.485485 328.917351,146.665887 C326.533605,147.846288 264.545172,146.665887 264.545172,146.665887 C264.545172,146.665887 263.364334,132.501071 265.74808,125.418663 C266.920676,121.934734 269.665888,112.458375 272.899319,104.171439 C276.239064,95.612029 280.050557,88.2646586 280.050557,86.4654188 C280.050557,82.9242148 277.666811,47.5121748 277.666811,47.5121748 Z M297.029211,78.2026095 C298.674844,78.2026095 300.008893,76.8814003 300.008893,75.2516061 C300.008893,73.621812 298.674844,72.3006028 297.029211,72.3006028 C295.383578,72.3006028 294.049528,73.621812 294.049528,75.2516061 C294.049528,76.8814003 295.383578,78.2026095 297.029211,78.2026095 Z M297.029211,87.6458201 C298.674844,87.6458201 300.008893,86.3246109 300.008893,84.6948168 C300.008893,83.0650226 298.674844,81.7438135 297.029211,81.7438135 C295.383578,81.7438135 294.049528,83.0650226 294.049528,84.6948168 C294.049528,86.3246109 295.383578,87.6458201 297.029211,87.6458201 Z" id="Combined-Shape" fill="#474747"></path>
        </g>
    </g>
</svg>